<svg width="40" height="40" viewBox="0 0 40 40" fill="none" xmlns="http://www.w3.org/2000/svg">
<g clip-path="url(#clip0_114_562)">
<path d="M12.1355 16.2406C14.8925 21.1198 18.9456 25.1622 23.8351 27.9082L28.2298 23.5476L38.8219 25.9283V37.7138C38.8219 38.5388 37.2313 38.8216 36.4654 38.8216C17.6142 37.7138 2.29755 23.5712 1.20182 3.67724C1.11935 2.85225 1.20182 1.37906 2.29755 1.17871H14.0796L16.4596 11.7739L12.1473 16.2406" fill="white"/>
<path d="M12.1355 16.2406C14.8925 21.1198 18.9456 25.1622 23.8351 27.9082L28.2298 23.5476L38.8219 25.9283V37.7138C38.8219 38.5388 37.2313 38.8216 36.4654 38.8216C17.6142 37.7138 2.29755 23.5712 1.20182 3.67724C1.11935 2.85225 1.20182 1.37906 2.29755 1.17871H14.0796L16.4596 11.7739L12.1473 16.2406" stroke="white" stroke-width="2" stroke-miterlimit="10" stroke-linecap="round"/>
</g>
<defs>
<clipPath id="clip0_114_562">
<rect width="40" height="40" fill="white"/>
</clipPath>
</defs>
</svg>
