<svg width="40" height="40" viewBox="0 0 40 40" fill="none" xmlns="http://www.w3.org/2000/svg">
<path d="M40 20C40 31.0457 31.0457 40 20 40C8.9543 40 0 31.0457 0 20C0 8.9543 8.9543 0 20 0C31.0457 0 40 8.9543 40 20Z" fill="#FF792E"/>
<path d="M19.8699 27.6801L19.5599 30.1301C22.0399 29.1001 24.2399 27.5101 26.0099 25.4901C27.4199 23.7101 28.1299 21.4701 28.0099 19.2001C27.8399 14.5101 23.8999 10.8401 19.1999 11.0101C14.5099 11.1701 10.8399 15.1201 11.0099 19.8101C11.1799 24.1701 15.4099 27.8401 19.8699 27.6801Z" fill="white"/>
<path d="M15.48 20.6899C16.0323 20.6899 16.48 20.2422 16.48 19.6899C16.48 19.1377 16.0323 18.6899 15.48 18.6899C14.9277 18.6899 14.48 19.1377 14.48 19.6899C14.48 20.2422 14.9277 20.6899 15.48 20.6899Z" fill="#FF792E"/>
<path d="M19.53 20.6401C20.0823 20.6401 20.53 20.1924 20.53 19.6401C20.53 19.0879 20.0823 18.6401 19.53 18.6401C18.9777 18.6401 18.53 19.0879 18.53 19.6401C18.53 20.1924 18.9777 20.6401 19.53 20.6401Z" fill="#FF792E"/>
<path d="M23.64 20.6001C24.1923 20.6001 24.64 20.1524 24.64 19.6001C24.64 19.0478 24.1923 18.6001 23.64 18.6001C23.0877 18.6001 22.64 19.0478 22.64 19.6001C22.64 20.1524 23.0877 20.6001 23.64 20.6001Z" fill="#FF792E"/>
</svg>
